HIERARCHY
ROOT Hips
{
	OFFSET	0.0000	0.0000	0.0000
	CHANNELS 6 Xposition Yposition Zposition Xrotation Yrotation Zrotation
	JOINT Chest
	{
		OFFSET	0.0000	9.1238	-4.9373
		CHANNELS 3 Xrotation Yrotation Zrotation
		JOINT Chest2
		{
			OFFSET	0.0000	8.3261	0.4350
			CHANNELS 3 Xrotation Yrotation Zrotation
			JOINT Chest3
			{
				OFFSET	0.0000	10.3026	-2.2933
				CHANNELS 3 Xrotation Yrotation Zrotation
				JOINT Neck
				{
					OFFSET	0.0000	23.2167	-0.4828
					CHANNELS 3 Xrotation Yrotation Zrotation
					JOINT Head
					{
						OFFSET	-0.0001	13.1107	3.5661
						CHANNELS 3 Xrotation Yrotation Zrotation
						End Site
						{
							OFFSET	0.0001	18.3189	0.5469
						}
					}
				}
				JOINT LeftCollar
				{
					OFFSET	2.3439	22.4052	7.6762
					CHANNELS 3 Xrotation Yrotation Zrotation
					JOINT LeftShoulder
					{
						OFFSET	14.0163	-1.1751	-5.2001
						CHANNELS 3 Xrotation Yrotation Zrotation
						JOINT LeftElbow
						{
							OFFSET	-0.1031	-29.0876	-0.2521
							CHANNELS 3 Xrotation Yrotation Zrotation
							JOINT LeftWrist
							{
								OFFSET	0.0704	-24.2652	-0.1454
								CHANNELS 3 Xrotation Yrotation Zrotation
								JOINT LeftFinger1
								{
									OFFSET	0.8225	-9.4045	2.6121
									CHANNELS 3 Xrotation Yrotation Zrotation
									JOINT LeftFinger11
									{
										OFFSET	-0.8578	-3.5178	0.6198
										CHANNELS 3 Xrotation Yrotation Zrotation
										JOINT LeftFinger12
										{
											OFFSET	-0.5857	-2.4015	0.4233
											CHANNELS 3 Xrotation Yrotation Zrotation
											End Site
											{
												OFFSET	-0.5101	-1.7089	0.2772
											}
										}
									}
								}
								JOINT LeftFinger2
								{
									OFFSET	0.9498	-9.5449	0.2274
									CHANNELS 3 Xrotation Yrotation Zrotation
									JOINT LeftFinger21
									{
										OFFSET	0.0121	-4.3495	-0.0257
										CHANNELS 3 Xrotation Yrotation Zrotation
										JOINT LeftFinger22
										{
											OFFSET	0.0074	-2.4109	-0.0147
											CHANNELS 3 Xrotation Yrotation Zrotation
											End Site
											{
												OFFSET	-0.1529	-2.1655	0.0029
											}
										}
									}
								}
								JOINT LeftFinger3
								{
									OFFSET	0.6339	-9.0457	-2.1401
									CHANNELS 3 Xrotation Yrotation Zrotation
									JOINT LeftFinger31
									{
										OFFSET	-0.1998	-3.9467	-0.2471
										CHANNELS 3 Xrotation Yrotation Zrotation
										JOINT LeftFinger32
										{
											OFFSET	-0.1132	-2.2491	-0.1413
											CHANNELS 3 Xrotation Yrotation Zrotation
											End Site
											{
												OFFSET	-0.2445	-1.9885	-0.0940
											}
										}
									}
								}
								JOINT LeftFinger4
								{
									OFFSET	-0.6379	-8.3941	-3.6959
									CHANNELS 3 Xrotation Yrotation Zrotation
									JOINT LeftFinger41
									{
										OFFSET	-0.5063	-2.4276	-0.6701
										CHANNELS 3 Xrotation Yrotation Zrotation
										JOINT LeftFinger42
										{
											OFFSET	-0.3707	-1.7802	-0.4917
											CHANNELS 3 Xrotation Yrotation Zrotation
											End Site
											{
												OFFSET	-0.4341	-1.5800	-0.3625
											}
										}
									}
								}
								JOINT LeftFinger0
								{
									OFFSET	-1.4725	-1.9455	1.4749
									CHANNELS 3 Xrotation Yrotation Zrotation
									JOINT LeftFinger01
									{
										OFFSET	-1.1895	-3.6221	2.7308
										CHANNELS 3 Xrotation Yrotation Zrotation
										JOINT LeftFinger02
										{
											OFFSET	-0.8535	-2.3851	1.7184
											CHANNELS 3 Xrotation Yrotation Zrotation
											End Site
											{
												OFFSET	-0.6037	-1.7539	1.2010
											}
										}
									}
								}
							}
						}
					}
				}
				JOINT RightCollar
				{
					OFFSET	-2.3439	22.4052	7.6762
					CHANNELS 3 Xrotation Yrotation Zrotation
					JOINT RightShoulder
					{
						OFFSET	-14.0188	-1.1753	-5.2010
						CHANNELS 3 Xrotation Yrotation Zrotation
						JOINT RightElbow
						{
							OFFSET	0.1031	-29.0876	-0.2521
							CHANNELS 3 Xrotation Yrotation Zrotation
							JOINT RightWrist
							{
								OFFSET	-0.0704	-24.2652	-0.1454
								CHANNELS 3 Xrotation Yrotation Zrotation
								JOINT RightFinger1
								{
									OFFSET	-0.8226	-9.4046	2.6121
									CHANNELS 3 Xrotation Yrotation Zrotation
									JOINT RightFinger11
									{
										OFFSET	0.8578	-3.5178	0.6198
										CHANNELS 3 Xrotation Yrotation Zrotation
										JOINT RightFinger12
										{
											OFFSET	0.5859	-2.4014	0.4233
											CHANNELS 3 Xrotation Yrotation Zrotation
											End Site
											{
												OFFSET	0.5101	-1.7089	0.2772
											}
										}
									}
								}
								JOINT RightFinger2
								{
									OFFSET	-0.9499	-9.5449	0.2274
									CHANNELS 3 Xrotation Yrotation Zrotation
									JOINT RightFinger21
									{
										OFFSET	-0.0121	-4.3495	-0.0257
										CHANNELS 3 Xrotation Yrotation Zrotation
										JOINT RightFinger22
										{
											OFFSET	-0.0074	-2.4109	-0.0148
											CHANNELS 3 Xrotation Yrotation Zrotation
											End Site
											{
												OFFSET	0.1529	-2.1655	0.0029
											}
										}
									}
								}
								JOINT RightFinger3
								{
									OFFSET	-0.6339	-9.0457	-2.1401
									CHANNELS 3 Xrotation Yrotation Zrotation
									JOINT RightFinger31
									{
										OFFSET	0.1998	-3.9467	-0.2471
										CHANNELS 3 Xrotation Yrotation Zrotation
										JOINT RightFinger32
										{
											OFFSET	0.1132	-2.2491	-0.1413
											CHANNELS 3 Xrotation Yrotation Zrotation
											End Site
											{
												OFFSET	0.2445	-1.9886	-0.0940
											}
										}
									}
								}
								JOINT RightFinger4
								{
									OFFSET	0.6379	-8.3941	-3.6959
									CHANNELS 3 Xrotation Yrotation Zrotation
									JOINT RightFinger41
									{
										OFFSET	0.5062	-2.4276	-0.6701
										CHANNELS 3 Xrotation Yrotation Zrotation
										JOINT RightFinger42
										{
											OFFSET	0.3706	-1.7802	-0.4917
											CHANNELS 3 Xrotation Yrotation Zrotation
											End Site
											{
												OFFSET	0.4341	-1.5800	-0.3625
											}
										}
									}
								}
								JOINT RightFinger0
								{
									OFFSET	1.4724	-1.9455	1.4747
									CHANNELS 3 Xrotation Yrotation Zrotation
									JOINT RightFinger01
									{
										OFFSET	1.1897	-3.6221	2.7310
										CHANNELS 3 Xrotation Yrotation Zrotation
										JOINT RightFinger02
										{
											OFFSET	0.8534	-2.3851	1.7184
											CHANNELS 3 Xrotation Yrotation Zrotation
											End Site
											{
												OFFSET	0.6038	-1.7539	1.2010
											}
										}
									}
								}
							}
						}
					}
				}
			}
		}
	}
	JOINT RightHip
	{
		OFFSET	-9.7602	4.1242	-0.8045
		CHANNELS 3 Xrotation Yrotation Zrotation
		JOINT RightKnee
		{
			OFFSET	-0.7810	-42.4524	0.0000
			CHANNELS 3 Xrotation Yrotation Zrotation
			JOINT RightAnkle
			{
				OFFSET	0.0000	-41.6857	0.0000
				CHANNELS 3 Xrotation Yrotation Zrotation
				JOINT RightToe
				{
					OFFSET	0.0000	-4.5816	9.5808
					CHANNELS 3 Xrotation Yrotation Zrotation
					End Site
					{
						OFFSET	0.0000	0.0000	6.4274
					}
				}
			}
		}
	}
	JOINT LeftHip
	{
		OFFSET	9.7601	4.1245	-0.8045
		CHANNELS 3 Xrotation Yrotation Zrotation
		JOINT LeftKnee
		{
			OFFSET	0.7811	-42.4527	0.0000
			CHANNELS 3 Xrotation Yrotation Zrotation
			JOINT LeftAnkle
			{
				OFFSET	0.0000	-41.6857	0.0000
				CHANNELS 3 Xrotation Yrotation Zrotation
				JOINT LeftToe
				{
					OFFSET	0.0000	-4.5816	9.5808
					CHANNELS 3 Xrotation Yrotation Zrotation
					End Site
					{
						OFFSET	0.0000	0.0000	6.4274
					}
				}
			}
		}
	}
}
MOTION
Frames:	4
Frame Time: 0.0333333000
	0.0000	86.9756	2.8539	0.000000	0.000000	0.000000	0.000000	0.000000	0.000000	0.000000	0.000000	0.000000	0.000000	0.000000	0.000000	0.000000	0.000000	0.000000	0.000000	0.000000	0.000000	0.000000	0.000000	0.000000	0.000000	0.000000	0.000000	0.000000	0.000000	0.000000	0.000000	0.000000	0.000000	0.000000	0.000000	0.000000	0.000000	0.000000	0.000000	0.000000	0.000000	0.000000	0.000000	0.000000	0.000000	0.000000	0.000000	0.000000	0.000000	0.000000	0.000000	0.000000	0.000000	0.000000	0.000000	0.000000	0.000000	0.000000	0.000000	0.000000	0.000000	0.000000	0.000000	0.000000	0.000000	0.000000	0.000000	0.000000	0.000000	0.000000	0.000000	0.000000	0.000000	0.000000	0.000000	0.000000	0.000000	0.000000	0.000000	0.000000	0.000000	0.000000	0.000000	0.000000	0.000000	0.000000	0.000000	0.000000	0.000000	0.000000	0.000000	0.000000	0.000000	0.000000	0.000000	0.000000	0.000000	0.000000	0.000000	0.000000	0.000000	0.000000	0.000000	0.000000	0.000000	0.000000	0.000000	0.000000	0.000000	0.000000	0.000000	0.000000	0.000000	0.000000	0.000000	0.000000	0.000000	0.000000	0.000000	0.000000	0.000000	0.000000	0.000000	0.000000	0.000000	0.000000	0.000000	0.000000	0.000000	0.000000	0.000000	0.000000	0.000000	0.000000	0.000000	0.000000	0.000000	0.000000	0.000000	0.000000	0.000000	0.000000	0.000000	0.000000	0.000000	0.000000	0.000000	0.000000	0.000000	0.000000	0.000000	0.000000	0.000000	0.000000	0.000000	0.000000	0.000000	0.000000	0.000000
	0.2717	91.6632	55.9584	-0.592259	-0.986517	0.761715	-0.448821	1.043853	-0.271007	-0.448821	1.043853	-0.271007	-0.448821	1.043853	-0.271007	3.117797	2.883893	-11.837080	0.655095	-0.081301	5.568434	0.000000	0.000000	-3.088427	-15.636980	2.995281	73.705000	-25.578430	-0.168710	0.399125	0.000000	0.000000	0.000000	0.000000	0.000000	0.000000	0.000000	0.000000	0.000000	0.000000	0.000000	0.000000	0.000000	0.000000	0.000000	0.000000	0.000000	0.000000	0.000000	0.000000	0.000000	0.000000	0.000000	0.000000	0.000000	0.000000	0.000000	0.000000	0.000000	0.000000	0.000000	0.000000	0.000000	0.000000	0.000000	0.000000	0.000000	0.000000	0.000000	0.000000	0.000000	0.000000	0.000000	0.000000	0.000000	0.000000	0.000000	0.000000	0.000000	0.000000	2.905379	-22.663530	-14.842470	-78.802810	-30.605010	0.222533	-0.465440	0.000000	0.000000	0.000000	-0.000001	0.000002	-0.000005	0.000000	-0.000001	-0.000001	0.000000	0.000000	-0.000001	-0.000001	0.000002	-0.000005	0.000000	-0.000001	-0.000001	0.000000	0.000000	-0.000001	-0.000001	0.000002	-0.000005	0.000000	-0.000001	-0.000001	0.000000	0.000000	-0.000001	-0.000001	0.000002	-0.000005	0.000000	-0.000001	-0.000001	0.000000	0.000000	-0.000001	-0.000001	0.000002	-0.000005	0.000000	-0.000001	-0.000001	0.000000	0.000000	-0.000001	1.852133	-0.401050	2.294127	4.962316	0.000000	0.000000	-3.802901	4.118112	2.191427	0.000000	0.000000	0.000000	2.011458	1.202601	-3.182262	9.460673	0.000001	0.000000	-3.685860	-12.641550	-6.654797	0.000000	0.000000	0.000000
	0.4076	91.6168	56.0228	-0.394140	-1.647658	0.523503	-0.657783	1.151086	-0.064444	-0.657784	1.151086	-0.064444	-0.657783	1.151086	-0.064444	3.873167	2.630836	-11.130060	1.020350	-0.050748	1.610055	0.000000	0.000000	-3.174321	-15.333030	3.702916	73.490870	-26.410220	-0.175403	0.411540	0.000000	0.000000	0.000000	0.000000	0.000000	0.000000	0.000000	0.000000	0.000000	0.000000	0.000000	0.000000	0.000000	0.000000	0.000000	0.000000	0.000000	0.000000	0.000000	0.000000	0.000000	0.000000	0.000000	0.000000	0.000000	0.000000	0.000000	0.000000	0.000000	0.000000	0.000000	0.000000	0.000000	0.000000	0.000000	0.000000	0.000000	0.000000	0.000000	0.000000	0.000000	0.000000	0.000000	0.000000	0.000000	0.000000	0.000000	0.000000	0.000000	0.000000	2.853184	-24.513900	-13.474680	-78.760320	-29.254150	0.208003	-0.447688	0.000001	-0.000001	0.000000	0.000000	0.000000	0.000000	0.000000	0.000000	0.000000	0.000000	0.000000	0.000000	0.000000	0.000000	0.000000	0.000000	0.000000	0.000000	0.000000	0.000000	0.000000	0.000000	0.000000	0.000000	0.000000	0.000000	0.000000	0.000000	0.000000	0.000000	0.000000	0.000000	0.000000	0.000000	0.000000	0.000000	0.000000	0.000000	0.000000	0.000000	0.000000	0.000000	0.000000	0.000000	0.000000	0.000000	0.000000	0.000000	0.346409	-2.508359	2.213950	8.371963	0.000000	0.000000	-3.466139	5.651283	2.972437	0.000000	0.000000	0.000000	2.359659	1.056547	-3.116973	8.587371	0.000001	0.000000	-3.587461	-12.585650	-6.607814	0.000001	0.000000	0.000000
	0.4799	91.6276	56.0934	-0.156445	-3.118001	0.117475	-0.920367	1.650238	0.175617	-0.920367	1.650238	0.175617	-0.920367	1.650238	0.175617	4.967169	2.421202	-10.634190	1.013841	-0.032092	1.425793	0.000000	0.000000	-3.235233	-15.120160	3.826815	73.222400	-26.868530	-0.178367	0.418864	0.000001	0.000000	-0.000001	0.000001	0.000000	-0.000001	0.000001	0.000000	-0.000001	0.000001	0.000000	-0.000001	0.000001	0.000000	-0.000001	0.000001	0.000000	-0.000001	0.000001	0.000000	-0.000001	0.000001	0.000000	-0.000001	0.000001	0.000000	-0.000001	0.000001	0.000000	-0.000001	0.000001	0.000000	-0.000001	0.000001	0.000000	-0.000001	0.000001	0.000000	-0.000001	0.000001	0.000000	-0.000001	0.000001	0.000000	-0.000001	0.000001	0.000000	-0.000001	0.000000	0.000000	2.798001	-25.152280	-12.724760	-78.765300	-28.708690	0.201053	-0.441177	0.000000	0.000000	0.000000	0.000000	0.000000	0.000000	0.000000	0.000000	0.000000	0.000000	0.000000	0.000000	0.000000	0.000000	0.000000	0.000000	0.000000	0.000000	0.000000	0.000000	0.000000	0.000000	0.000000	0.000000	0.000000	0.000000	0.000000	0.000000	0.000000	0.000000	0.000000	0.000000	0.000000	0.000000	0.000000	0.000000	0.000000	0.000000	0.000000	0.000000	0.000000	0.000000	0.000000	0.000000	0.000000	0.000000	0.000000	0.000000	-1.043892	-5.471966	2.304273	11.207390	0.000001	0.000000	-3.242235	7.901618	4.118545	0.000000	0.000000	0.000000	2.749160	0.305749	-2.953533	7.574727	0.000001	0.000000	-3.118620	-11.414560	-5.939048	0.000002	0.000000	0.000000
